/* XPM */
static char *zs6aMeol[] = {
/* columns rows colors chars-per-pixel */
"32 32 137 2 ",
"   c #3E437F",
".  c #49497D",
"X  c #6A4D64",
"o  c #7F5D64",
"O  c #755564",
"+  c #625575",
"@  c #7F6469",
"#  c #B25F39",
"$  c #B7683C",
"%  c #D25F1F",
"&  c #FF6D05",
"*  c #F0650B",
"=  c #FE750A",
"-  c #FD7B0E",
";  c #EF6C11",
":  c #E16618",
">  c #EE7417",
",  c #FD7E11",
"<  c #C35E2A",
"1  c #C06432",
"2  c #A15E47",
"3  c #FD8415",
"4  c #FC8C1A",
"5  c #FC911D",
"6  c #CD803A",
"7  c #DC9138",
"8  c #FB9520",
"9  c #FB9B24",
"0  c #EB9D32",
"q  c #FAA027",
"w  c #FAA52B",
"e  c #FAAA2E",
"r  c #E9AD3D",
"t  c #F9AF31",
"y  c #F9B435",
"u  c #F8BB3A",
"i  c #F8C13E",
"p  c #BD8148",
"a  c #AD8055",
"s  c #ABA06B",
"d  c #BAB36B",
"f  c #CC8F44",
"g  c #DAA647",
"h  c #CAAA57",
"j  c #CAB35D",
"k  c #D9BB55",
"l  c #BCCD70",
"z  c #BFDC72",
"x  c #F8C540",
"c  c #F7CA44",
"v  c #F8D345",
"b  c #FADB45",
"n  c #DEE45C",
"m  c #FBE445",
"M  c #FCEA45",
"N  c #FDF245",
"B  c #EEF050",
"V  c #CEDD67",
"C  c #123B9C",
"Z  c #0E3EA4",
"A  c #103DA1",
"S  c #2F418A",
"D  c #3F5F9B",
"F  c #3A4787",
"G  c #0A40AB",
"H  c #1745A7",
"J  c #0643B3",
"K  c #0246BB",
"L  c #0048BF",
"P  c #1158BC",
"I  c #204FAA",
"U  c #2F6EB5",
"Y  c #41508D",
"T  c #5E708D",
"R  c #4F6391",
"E  c #5E7C96",
"W  c #004CC3",
"Q  c #0051C7",
"!  c #0054CA",
"~  c #005ACE",
"^  c #005DD1",
"/  c #1469C6",
"(  c #1572CE",
")  c #0063D5",
"_  c #036AD2",
"`  c #0066D8",
"'  c #006BDC",
"]  c #0374DB",
"[  c #017ADC",
"{  c #1075D6",
"}  c #2F7FC2",
"|  c #2376C6",
" . c #006FE0",
".. c #0073E3",
"X. c #017AE5",
"o. c #007CEA",
"O. c #5F889E",
"+. c #6D8A92",
"@. c #7C9B91",
"#. c #7CAC9B",
"$. c #7EB59D",
"%. c #5D93A7",
"&. c #4D99BA",
"*. c #6EB5AA",
"=. c #60B9B7",
"-. c #7FC3A0",
";. c #1F88D7",
":. c #2686CE",
">. c #2895D8",
",. c #3FA4CA",
"<. c #2FA1D7",
"1. c #0082EE",
"2. c #0587E7",
"3. c #0091E3",
"4. c #1095EE",
"5. c #0085F1",
"6. c #008AF5",
"7. c #008EF8",
"8. c #0092F3",
"9. c #009CF4",
"0. c #0093FC",
"q. c #009CFB",
"w. c #109CF1",
"e. c #00A3ED",
"r. c #00A3FB",
"t. c #00ABFA",
"y. c #14A5F3",
"u. c #01BEF7",
"i. c #00B3F9",
"p. c #02BCF8",
"a. c #0BBEFA",
"s. c #18B7FC",
"d. c #13BEFD",
"f. c #1ABDFF",
"g. c #50B3C3",
"h. c #8C9D85",
"j. c None",
/* pixels */
"j.j.j.j.j.j.j.j.j.j.j.j.j.j.j.j.j.j.j.j.j.j.j.j.j.j.j.j.j.j.j.j.",
"j.j.j.j.j.j.j.j.j.j.j.j.j.j.j.j.j.j.j.j.j.j.j.j.j.j.j.j.j.j.j.j.",
"j.j.j.j.j.j.j.j.j.j.j.o.5.5.5.6.6.7.7.0.0.j.j.j.j.j.j.j.j.j.j.j.",
"j.j.j.j.j.j.j.j.j.X.o.o.;.&.#.#.$.$.*.<.0.0.0.j.j.j.j.j.j.j.j.j.",
"j.j.j.j.j.j.j.....X.%.d x c c v b b m M n -.w.0.0.j.j.j.j.j.j.j.",
"j.j.j.j.j.j.'  .} h u u i x c c v b b m M N B g.0.q.j.j.j.j.j.j.",
"j.j.j.j.j.` ' O.r y u u i i x c c v b b m M M N =.0.0.j.j.j.j.j.",
"j.j.j.j.) ) O.w e e y y u u i i c c v b m m M N z 0.0.0.j.j.j.j.",
"j.j.j.j.) U 0 w w e t y y u u i x c c v b b m M V 4.0.0.j.j.j.j.",
"j.j.j.^ ^ f 9 q w e e t y y u u x x c c v b b m M V 7.0.0.j.j.j.",
"j.j.j.^ T 8 9 9 q w w t y y y u u i x x c v v b m M ,.7.0.j.j.j.",
"j.j.! ! p 5 8 9 9 9 w w e e y y u u i x c c v v b l >.7.7.7.j.j.",
"j.j.! / 3 4 5 8 9 9 9 w e e e y y u u i i x v v v >.5.6.6.7.j.j.",
"j.j.! D 3 3 4 8 8 7 E | X.:.+.g y y u u i i x v v #.5.5.6.6.j.j.",
"j.j.W @ 3 3 4 4 a ( y.f.f.f.s.y.+.r y u h.j c v c h.1.5.5.6.j.j.",
"j.j.W @ , 3 3 6 ( s.f.f.f.f.f.w.6.{ +.s :.] @.k d ;.o.1.5.5.j.j.",
"j.j.Q + - - 3 R y.f.f.f.f.s.] ) ` ` ' ' ......X.X.X.o.o.o.6.j.j.",
"j.j.L 2 - - 3 ^ f.f.f.d.f.2.^ ) ` ` ' ' ' .. .....X.X.o.o.o.j.j.",
"j.j.J Y & - $ _ d.d.a.d.a.] ^ ^ ) ) ` ` ' ' ' ........o.o.o.j.j.",
"j.j.G H & = > _ a.a.a.a.a.] ^ ^ ) ) ) ` ` ' ' ] ....X.X.o.o.j.j.",
"j.j.G G # & = I u.u.u.u.u.e.! ~ ^ ^ ) ) ) ` ` ' ' ..9.X.X.o.j.j.",
"j.j.j.C . & & o 3.p.p.p.p.i.[ ~ ~ ^ ^ ) ) ) ` ' X.9.1.....j.j.j.",
"j.j.j.C C < & ; P i.i.i.i.i.t.2.~ ~ ~ ~ ) ) ..8.r.5. . ...j.j.j.",
"j.j.j.j.C S * & 1 _ t.t.t.r.t.r.r.8.X.2.8.q.q.q.X.` ' ' j.j.j.j.",
"j.j.j.j.C C . * & 2 ] r.r.q.8.r.q.q.q.q.q.q.1.` ` ` ` ' j.j.j.j.",
"j.j.j.j.j.C C F % & $ P 8.q.8...` ......` ~ ~ ) ) ) ` j.j.j.j.j.",
"j.j.j.j.j.j.C C C X : ; + ) 1.0.6.X.^ ! ! ~ ~ ~ ^ ) j.j.j.j.j.j.",
"j.j.j.j.j.j.j.C C C A F O + K L W W W ! ! ! ~ ~ ~ j.j.j.j.j.j.j.",
"j.j.j.j.j.j.j.j.j.C C C Z G J K W W W W Q ! ! j.j.j.j.j.j.j.j.j.",
"j.j.j.j.j.j.j.j.j.j.j.C A Z G J K L W W Q j.j.j.j.j.j.j.j.j.j.j.",
"j.j.j.j.j.j.j.j.j.j.j.j.j.j.j.j.j.j.j.j.j.j.j.j.j.j.j.j.j.j.j.j.",
"j.j.j.j.j.j.j.j.j.j.j.j.j.j.j.j.j.j.j.j.j.j.j.j.j.j.j.j.j.j.j.j."
};
