/* XPM */
static char *__[] = {
/* columns rows colors chars-per-pixel */
"32 32 183 2",
"   c #001F09",
".  c #000712",
"X  c #000D1B",
"o  c #2D0000",
"O  c #2E060B",
"+  c #003F19",
"@  c #001022",
"#  c #00162A",
"$  c #00192C",
"%  c #001C32",
"&  c #643526",
"*  c #005724",
"=  c #006A26",
"-  c #006B2A",
";  c #00742B",
":  c #007D2B",
">  c #7B6635",
",  c #6C7438",
"<  c #002640",
"1  c #003252",
"2  c #00365C",
"3  c #003C61",
"4  c #004266",
"5  c #00426C",
"6  c #004671",
"7  c #004D7A",
"8  c #00527D",
"9  c #647C45",
"0  c #56577F",
"q  c #5D5B7D",
"w  c #715774",
"e  c #775D77",
"r  c #7D5977",
"t  c #7A5E79",
"y  c #79607A",
"u  c #E71F1E",
"i  c #ED1F1C",
"p  c #FE1614",
"a  c #FE1916",
"s  c #F01C1B",
"d  c #FF1D1C",
"f  c #FF221F",
"g  c #F31F22",
"h  c #FF1D23",
"j  c #CE2D2A",
"k  c #DD2324",
"l  c #D43526",
"z  c #D63728",
"x  c #C53439",
"c  c #C6383F",
"v  c #D63337",
"b  c #E82021",
"n  c #EB242A",
"m  c #F12322",
"M  c #FF2322",
"N  c #FF2B25",
"B  c #FE2529",
"V  c #FE2B29",
"C  c #FF3227",
"Z  c #FF3924",
"A  c #FF322A",
"S  c #EB2D34",
"D  c #FF2B32",
"F  c #ED3A3B",
"G  c #F53336",
"H  c #FF3333",
"J  c #FF3938",
"K  c #AA4F2B",
"L  c #B7452D",
"P  c #BB4528",
"I  c #B74929",
"U  c #A5522B",
"Y  c #AB4C33",
"T  c #FC7A0B",
"R  c #EB7C1B",
"E  c #FC4A24",
"W  c #FF462E",
"Q  c #FF4B2D",
"!  c #F75021",
"~  c #EC4C32",
"^  c #FC473D",
"/  c #EE5B3A",
"(  c #F3563C",
")  c #F45A3B",
"_  c #E4652D",
"`  c #F16C28",
"'  c #EB7222",
"]  c #E27926",
"[  c #E8742B",
"{  c #E76131",
"}  c #943950",
"|  c #DA3942",
" . c #E23A41",
".. c #F33F40",
"X. c #904359",
"o. c #9D4759",
"O. c #9A4B5C",
"+. c #B6414C",
"@. c #AB4451",
"#. c #A7425C",
"$. c #8E4F64",
"%. c #9A4A64",
"&. c #945569",
"*. c #9C5669",
"=. c #865D75",
"-. c #8C5C71",
";. c #C14150",
":. c #D84B50",
">. c #E3454A",
",. c #F34243",
"<. c #E0514C",
"1. c #CD5664",
"2. c #008C36",
"3. c #0E813F",
"4. c #00943B",
"5. c #009B3A",
"6. c #00A037",
"7. c #00A23C",
"8. c #00A93E",
"9. c #009148",
"0. c #338B44",
"q. c #39944E",
"w. c #00AC42",
"e. c #DE990D",
"r. c #DE9613",
"t. c #FA8600",
"y. c #FC8900",
"u. c #FC9500",
"i. c #EB8617",
"p. c #E3911C",
"a. c #FEA400",
"s. c #FDAF00",
"d. c #EAB506",
"f. c #E7BB00",
"g. c #EAB10D",
"h. c #FFB100",
"j. c #F0BC00",
"k. c #FFBB00",
"l. c #E38721",
"z. c #EDC600",
"x. c #EFC800",
"c. c #F3C400",
"v. c #FFC300",
"b. c #F3CE00",
"n. c #FDCF00",
"m. c #FFD200",
"M. c #FFDA00",
"N. c #FFE000",
"B. c #005282",
"V. c #005A87",
"C. c #005B88",
"Z. c #005C96",
"A. c #3E5E88",
"S. c #00669C",
"D. c #00689A",
"F. c #2A628E",
"G. c #256894",
"H. c #006BA4",
"J. c #006EA9",
"K. c #0074AD",
"L. c #0073B4",
"P. c #0077BA",
"I. c #007ABD",
"U. c #2F78AD",
"Y. c #3C7BA6",
"T. c #6D5B8A",
"R. c #785784",
"E. c #496084",
"W. c #49658A",
"Q. c #43669C",
"!. c #4A669B",
"~. c #467099",
"^. c #5A7397",
"/. c #666280",
"(. c #696283",
"). c #646B8C",
"_. c #007DC2",
"`. c #0081C7",
"'. c #0088C4",
"]. c #0082CA",
"[. c #0086D0",
"{. c #008DD1",
"}. c None",
/* pixels */
"}.}.}.}.}.}.}.}.}.}.}.}.}.}.}.}.}.}.}.}.}.}.}.}.}.}.}.}.}.}.}.}.",
"}.}.}.}.}.}.}.}.}.}.}.}.}.}.8 C.C.8 4 }.}.}.}.}.}.}.}.}.}.}.}.}.",
"}.}.}.}.}.}.}.}.}.}.3 H._._._._._.`.`._.K.7 }.}.}.}.}.}.}.}.}.}.",
"}.}.}.}.}.}.}.}.5 _.]._.I.I._.I.I.I.I.I._.`.`.B.}.}.}.}.}.}.}.}.",
"}.}.}.}.}.}.}.S.`._.I.I._.I.I.I.I.I.I.I.I.I.I.].L.}.}.}.}.}.}.}.",
"}.}.}.}.}.}.L.`.I._._._.I.I.I._._._.I.I.I.I.I.I.`._.}.}.}.}.}.}.",
"}.}.}.}.}.L._._.I.K.G./.=.-.y W.H.L._.I.I.I.I.I._.D.1.}.}.}.}.}.",
"}.}.}.}.S.`._.J.e :.J V V N V H ,.*.D._.I.I.I._.F...d j }.}.}.}.",
"}.}.}.3 ].I.E.>.V M M N M M M M f N ,.q P._.`.S.F d k q.9.}.}.}.",
"}.}.}.P.I.w H M N C N V ~ { { ~ V M f D w I.P.| M h 9 w.6.}.}.}.",
"}.}.3 ].q A M N C V _ g.m.M.M.M.d._ B M A A.0 N d Y w.7.w.: }.}.",
"}.}.H.J.G M N Z V l.M.M.m.n.n.m.M.M.p.B M  .| M g 0.w.5.7.5.}.}.",
"}.}._.%.f N A V R M.m.m.m.m.m.n.m.m.N.i.B M B h L w.7.7.5.8.}.}.",
"}.}.L.S M C A E n.M.n.m.m.m.m.m.m.m.m.M.! M N h , w.7.7.7.8.= }.",
"}.2 Q.M N Z V y.M.m.m.m.n.m.n.n.m.m.m.M.u.B V m 4.7.7.7.6.w.; }.",
"}.5 T.d N A A h.M.m.n.m.m.m.m.m.m.n.n.M.k.C B l 7.5.5.7.7.8.; }.",
"}.5 R.d A A Z k.M.m.n.m.n.m.n.m.n.m.n.M.v.Z h P 7.7.7.7.7.7.; }.",
"}.2 T.d V A Z k.m.m.m.m.m.m.m.m.m.m.n.m.v.Z h K w.7.7.5.7.w.- }.",
"}.}.!.f N A A a.M.n.n.m.m.m.n.m.n.m.m.M.s.V h U 8.7.7.7.7.w.* }.",
"}.}.L.n M Z V T M.m.m.m.m.n.m.m.m.m.n.M.t.V h I 6.7.7.7.7.w.+ }.",
"}.}.J.#.f N Z W j.M.n.m.n.m.m.m.m.m.M.c.Q V B l 5.7.7.7.7.5.}.}.",
"}.}.4 U.s N N A ` b.M.n.m.m.m.n.n.M.n.' B N N m 2.8.5.7.w.= }.}.",
"}.}.}._.r a N N H [ z.M.M.m.m.M.M.z.] D d h N B > 8.7.8.7.  }.}.",
"}.}.}.2 {.$.a N N D ( r.f.z.x.f.e./ D p o.%.d M F 3.4.0.& }.}.}.",
"}.}.}.}.Z.{.t u d N V H ,.) ( ^ H h a O.'.K.b f N F <.v }.}.}.}.",
"}.}.}.}.}.L.{.Y.@.i a d d f d a a x ).'._.`.(.s d f d o }.}.}.}.",
"}.}.}.}.}.@ L.].'.Y.-.+.c c +.&.^.'.`.I.P.I.`.~.X.} O }.}.}.}.}.",
"}.}.}.}.}.}.X H.]._.].'.'.'.'.]._.I.I.I.I.I._.[.P.< }.}.}.}.}.}.",
"}.}.}.}.}.}.}.}.5 P.`._._.I.I.I.I.I.I.I._.`._.B.. }.}.}.}.}.}.}.",
"}.}.}.}.}.}.}.}.}.X 6 J._.`.`.`.`.`.`.`.L.8 $ }.}.}.}.}.}.}.}.}.",
"}.}.}.}.}.}.}.}.}.}.}.}.# 1 5 7 7 6 2 % }.}.}.}.}.}.}.}.}.}.}.}.",
"}.}.}.}.}.}.}.}.}.}.}.}.}.}.}.}.}.}.}.}.}.}.}.}.}.}.}.}.}.}.}.}."
};
